<?xml version="1.0" encoding="UTF-8"?>
<svg version="1.1" xmlns="http://www.w3.org/2000/svg" width="512" height="512">
<path d="M0 0 C12.51545559 9.7219912 16.86140176 21.5686467 21.26953125 36.44921875 C21.63978928 37.67663284 22.0100473 38.90404694 22.39152527 40.1686554 C23.3620109 43.39076426 24.32585533 46.61470074 25.28637695 49.83978271 C26.27314428 53.1468448 27.26881166 56.45122476 28.26367188 59.75585938 C30.20471012 66.20983283 32.1370186 72.66636932 34.0625 79.125 C34.59649414 78.05121094 35.13048828 76.97742188 35.68066406 75.87109375 C36.39642984 74.43486865 37.11225323 72.99867227 37.828125 71.5625 C38.1782666 70.85802734 38.5284082 70.15355469 38.88916016 69.42773438 C47.92391438 51.31649496 59.0132128 35.68672321 73.0625 21.125 C73.78695313 20.34898438 74.51140625 19.57296875 75.2578125 18.7734375 C85.50718164 8.07022176 97.57406957 -0.34701584 110.30126953 -7.83398438 C111.82784405 -8.73630122 113.33572892 -9.67009654 114.83984375 -10.609375 C121.96893434 -14.72275628 129.48233051 -15.34059101 137.45703125 -13.24609375 C142.99788429 -10.8835503 145.94013463 -6.86605373 149.0625 -1.875 C149.65546875 -0.96621094 150.2484375 -0.05742187 150.859375 0.87890625 C161.11986096 17.60349837 168.15340878 36.93160493 172.0625 56.125 C172.22331055 56.89569824 172.38412109 57.66639648 172.54980469 58.46044922 C181.51277734 103.48783659 172.35283288 153.60880189 146.88671875 191.89257812 C144.05756811 196.05547121 141.09682673 200.10988079 138.0625 204.125 C137.37800781 205.03636719 136.69351562 205.94773438 135.98828125 206.88671875 C123.11082207 223.29628102 106.60020241 239.21701146 88.0625 249.125 C87.4025 249.125 86.7425 249.125 86.0625 249.125 C86.40168457 250.20201172 86.74086914 251.27902344 87.09033203 252.38867188 C96.32126859 281.72347461 105.36430978 311.11323809 114.33520508 340.52832031 C115.04158782 342.84446704 115.74797799 345.16061149 116.45438957 347.47674942 C116.9308297 349.03888356 117.4072459 350.601025 117.88363838 352.16317368 C121.7596594 364.87190302 125.65133286 377.57578441 129.55078125 390.27734375 C129.95079912 391.58050002 129.95079912 391.58050002 130.35889816 392.90998268 C132.96166104 401.38911167 135.56530404 409.86796897 138.17133808 418.34609318 C139.12639143 421.4538638 140.08062516 424.56188566 141.03465843 427.66996956 C141.47832457 429.11465178 141.92236892 430.55921791 142.36681557 432.0036602 C142.97440814 433.97838925 143.58073535 435.95350258 144.18676758 437.92871094 C144.6967907 439.58818756 144.6967907 439.58818756 145.21711731 441.28118896 C147.79848478 449.96473712 148.65710914 458.73802293 144.38671875 467.0390625 C141.99895676 470.8003159 139.19674134 473.97129132 136.0625 477.125 C135.51207031 477.71023438 134.96164062 478.29546875 134.39453125 478.8984375 C119.98550009 492.95758048 97.27079643 498.26585578 77.875 498.4375 C76.80185547 498.46650391 75.72871094 498.49550781 74.62304688 498.52539062 C64.78612087 498.60275302 55.85876918 496.40004592 48.0625 490.125 C39.74240365 481.80490365 37.81829906 467.53163038 34.859375 456.53515625 C34.37225993 454.74048324 33.88472437 452.94592431 33.39678955 451.151474 C32.38121089 447.41147728 31.36970748 443.67041086 30.36132812 439.9284668 C29.06784563 435.1293051 27.76562483 430.33256767 26.46058273 425.53653812 C25.45568744 421.84081861 24.45459754 418.1440771 23.45475006 414.44698906 C22.97569624 412.67685398 22.49563422 410.90699144 22.01454926 409.1374073 C21.34545526 406.67341253 20.68130739 404.20813846 20.01855469 401.74243164 C19.81912262 401.0115181 19.61969055 400.28060455 19.41421509 399.52754211 C18.640842 396.63287619 18.0625 394.13652162 18.0625 391.125 C-6.6875 391.125 -31.4375 391.125 -56.9375 391.125 C-56.9375 397.065 -56.9375 403.005 -56.9375 409.125 C-54.2975 408.465 -51.6575 407.805 -48.9375 407.125 C-34.32027332 405.33323035 -20.86972724 408.30297625 -8.9375 417.125 C-3.70248708 421.6324632 2.88700266 427.34845081 5.0625 434.125 C5.078125 437.62890625 5.078125 437.62890625 4.0625 441.125 C-6.18459931 449.0484613 -18.88506685 450.85478053 -31.44921875 449.66015625 C-43.60221829 447.79569831 -53.84301211 442.26217338 -62.9375 434.125 C-63.04964844 434.85332031 -63.16179687 435.58164062 -63.27734375 436.33203125 C-66.56640883 450.24730658 -79.77351101 461.96581251 -91.3125 469.2578125 C-109.13220511 479.76089701 -128.54703983 481.62256963 -148.47265625 476.78125 C-149.69275391 476.45640625 -149.69275391 476.45640625 -150.9375 476.125 C-151.11539063 477.23681641 -151.11539063 477.23681641 -151.296875 478.37109375 C-152.73090952 484.53569336 -156.62696226 489.7455669 -161.9375 493.125 C-177.86041197 501.10074944 -198.20010659 500.27272499 -214.96240234 494.81396484 C-229.9275665 489.59373082 -246.8127491 481.58589729 -254.375 466.8125 C-259.01393816 456.55691026 -257.03643427 446.64680574 -253.71875 436.2734375 C-253.38258667 435.17569 -253.04642334 434.0779425 -252.70007324 432.94692993 C-251.62819375 429.45955475 -250.53344782 425.9798768 -249.4375 422.5 C-248.73283139 420.22183105 -248.02969568 417.94318737 -247.328125 415.6640625 C-244.45666385 406.36024241 -241.56351932 397.06440864 -238.5859375 387.79394531 C-238.20981323 386.60838043 -237.83368896 385.42281555 -237.44616699 384.20132446 C-236.72767503 381.93667457 -236.00000278 379.67491048 -235.26184082 377.41659546 C-234.94146851 376.400784 -234.62109619 375.38497253 -234.29101562 374.33837891 C-234.0047229 373.4495401 -233.71843018 372.56070129 -233.42346191 371.64492798 C-232.86855916 368.76751116 -233.06793234 366.91315926 -233.9375 364.125 C-236.10221194 361.9147174 -236.10221194 361.9147174 -238.875 359.9375 C-264.34761831 339.96802174 -279.39984481 310.9540372 -284.5546875 279.33984375 C-287.90538212 249.06311775 -282.42149592 216.08382033 -263.9375 191.125 C-260.53771167 188.50330756 -256.87309016 187.30492118 -252.6875 186.5 C-239.05636075 188.77185654 -225.03490644 200.11524621 -215.9375 210.125 C-214.761875 211.2696875 -214.761875 211.2696875 -213.5625 212.4375 C-212.69625 213.324375 -211.83 214.21125 -210.9375 215.125 C-210.26847656 215.80949219 -209.59945312 216.49398437 -208.91015625 217.19921875 C-202.81914371 223.66506283 -198.34816468 230.457414 -193.9375 238.125 C-191.92223105 234.49264912 -190.76443571 230.64263035 -189.56518555 226.68774414 C-189.33482888 225.93819867 -189.10447222 225.1886532 -188.86713505 224.41639423 C-188.0994438 221.91533879 -187.33682656 219.41276596 -186.57421875 216.91015625 C-186.02961163 215.13204074 -185.4847035 213.3540174 -184.93951416 211.57608032 C-183.46981406 206.77989267 -182.00456961 201.98235435 -180.54020309 197.18453598 C-179.00719181 192.16434974 -177.47021156 187.1453787 -175.93383789 182.1262207 C-169.20247549 160.12883659 -162.49168 138.12514599 -155.79424858 116.1174078 C-154.51941358 111.9285003 -153.24334417 107.73997164 -151.96622276 103.55176067 C-150.92208234 100.1271718 -149.87877857 96.70232851 -148.8359375 93.27734375 C-148.63316319 92.61140764 -148.43038887 91.94547153 -148.22146988 91.25935555 C-145.49084462 82.28676462 -142.79212618 73.30510736 -140.11723328 64.31575012 C-138.67521398 59.470571 -137.22351807 54.6283075 -135.76939106 49.78674984 C-134.79729914 46.54740812 -133.83271977 43.30626177 -132.87838745 40.06161499 C-131.83997784 36.53167732 -130.78332537 33.00767694 -129.72265625 29.484375 C-129.42666534 28.45965591 -129.13067444 27.43493683 -128.82571411 26.37916565 C-126.81781525 19.79585619 -124.02211349 14.64770946 -119.9375 9.125 C-119.36 8.25875 -118.7825 7.3925 -118.1875 6.5 C-91.19828854 -21.9886121 -30.8734584 -21.36426565 0 0 Z M-55.9375 124.125 C-56.18871329 125.05173004 -56.18871329 125.05173004 -56.4450016 125.99718189 C-60.59654732 141.3120781 -64.74902299 156.62672184 -68.90242958 171.94111347 C-70.91128997 179.34824096 -72.91987787 186.75544211 -74.92773438 194.1628418 C-76.87019 201.3289077 -78.81336548 208.4947781 -80.75713348 215.66048813 C-81.5281957 218.5030157 -82.29903691 221.34560308 -83.06970978 224.18823624 C-87.08844847 239.01007115 -91.12208005 253.82743662 -95.20996094 268.63037109 C-95.70923505 270.44013129 -95.70923505 270.44013129 -96.2185955 272.28645229 C-97.77216058 277.91647421 -99.32967586 283.54534355 -100.89468384 289.17219543 C-101.43692234 291.1332331 -101.97903457 293.09430569 -102.52099609 295.05541992 C-102.76883221 295.94038084 -103.01666832 296.82534176 -103.27201462 297.73711967 C-103.49374973 298.54225565 -103.71548485 299.34739162 -103.94393921 300.17692566 C-104.13722494 300.87211398 -104.33051067 301.5673023 -104.52965355 302.28355694 C-105.04562084 304.29882532 -105.04562084 304.29882532 -104.9375 307.125 C-98.51543146 307.37931993 -92.09466637 307.55397096 -85.66870117 307.67431641 C-83.48493946 307.7244955 -81.30151193 307.79265942 -79.11889648 307.87939453 C-67.03183692 308.91130438 -67.03183692 308.91130438 -56.08422852 305.08740234 C-54.27931102 302.49721742 -53.10214189 300.05092073 -51.9375 297.125 C-50.64282227 295.21240234 -50.64282227 295.21240234 -49.34765625 293.5859375 C-48.57292969 292.56757813 -47.79820312 291.54921875 -47 290.5 C-43.43612075 285.83642123 -39.65213037 281.59680313 -35.3359375 277.61328125 C-33.70924406 276.22244737 -33.70924406 276.22244737 -33.9375 274.125 C-35.08025391 273.79628906 -35.08025391 273.79628906 -36.24609375 273.4609375 C-43.36218528 271.27547119 -49.01977876 268.62246815 -54.9375 264.125 C-55.96875 263.403125 -57 262.68125 -58.0625 261.9375 C-65.77601705 255.23102546 -71.46271212 243.77203036 -72.1875 233.625 C-70.55442773 230.35885546 -68.5938104 229.89814272 -65.25097656 228.73583984 C-61.3921655 227.7169769 -57.66075225 227.63777371 -53.6875 227.6875 C-52.85702148 227.69289795 -52.02654297 227.6982959 -51.17089844 227.70385742 C-44.22269555 227.87452687 -38.3053463 229.3084526 -31.9375 232.125 C-29.60468944 233.12621892 -27.27140738 234.12634051 -24.9375 235.125 C-28.01837423 222.54757565 -31.34137975 210.04154633 -34.7265625 197.54296875 C-34.99621197 196.54639063 -35.26586143 195.54981251 -35.5436821 194.52303505 C-36.96418036 189.27357789 -38.38656186 184.02463541 -39.81054688 178.77612305 C-41.27918481 173.36151411 -42.74114858 167.94512564 -44.20170021 162.5283308 C-45.33041345 158.34700002 -46.46400281 154.16700269 -47.59894943 149.98736 C-48.14063164 147.98913477 -48.68046185 145.99040653 -49.21840286 143.99117088 C-49.96677034 141.21167615 -50.72201169 138.43413859 -51.47900391 135.65698242 C-51.69929764 134.83263702 -51.91959137 134.00829163 -52.14656067 133.15896606 C-53.08757111 129.73164758 -53.94993111 127.10635333 -55.9375 124.125 Z M-13.9375 280.125 C-28.80329406 291.72980985 -28.80329406 291.72980985 -38.9375 307.125 C-28.0475 307.125 -17.1575 307.125 -5.9375 307.125 C-6.71005925 300.94452603 -7.71465248 295.59794992 -9.375 289.6875 C-9.59220703 288.87345703 -9.80941406 288.05941406 -10.03320312 287.22070312 C-10.60286005 285.16959605 -11.26307169 283.14408288 -11.9375 281.125 C-12.5975 280.795 -13.2575 280.465 -13.9375 280.125 Z M-125.31640625 413.4375 C-137.82350631 426.64296606 -143.41583798 442.3604556 -145.9375 460.125 C-133.39776236 465.6572372 -119.46285956 463.6540195 -106.9375 459.125 C-92.47415711 452.60265518 -83.01925575 441.61672193 -76.6875 427.3125 C-72.33442714 415.61361668 -72.68935058 403.40839616 -72.9375 391.125 C-93.0288245 391.125 -111.07336082 399.59204368 -125.31640625 413.4375 Z " fill="#393839" transform="translate(310.9375,13.875)"/>
<path d="M0 0 C10.15162511 5.394645 19.68751783 12.09779898 27.4375 20.625 C28.613125 21.7696875 28.613125 21.7696875 29.8125 22.9375 C30.67875 23.824375 31.545 24.71125 32.4375 25.625 C33.42363281 26.63433594 33.42363281 26.63433594 34.4296875 27.6640625 C45.87616149 39.82346566 52.50365131 53.18705634 58.4375 68.625 C58.8603125 69.68460937 59.283125 70.74421875 59.71875 71.8359375 C70.84991619 101.94068242 66.54618645 136.9766735 53.4375 165.625 C52.17021112 167.92411471 50.83186828 170.17438517 49.5 172.4375 C46.23638657 178.32353128 45.62490637 182.17172992 47.4375 188.625 C47.63085938 189.31464844 47.82421875 190.00429688 48.0234375 190.71484375 C48.76135332 193.04578961 49.59691768 195.32902928 50.4375 197.625 C53.13173806 205.47545228 55.68704261 213.34167927 58 221.3125 C58.81033363 224.08397197 59.62356865 226.85458291 60.4375 229.625 C60.76492187 230.74390625 61.09234375 231.8628125 61.4296875 233.015625 C63.55684573 239.87175482 66.32519594 245.73169807 70.4375 251.625 C70.91574219 252.31207031 71.39398438 252.99914062 71.88671875 253.70703125 C81.02569776 265.37822107 94.14695263 270.72356231 108.4375 272.625 C122.8461645 274.17871524 136.75193574 270.12053954 148.4375 261.625 C161.64778017 250.65720566 167.53702629 236.34376674 169.4375 219.625 C169.68636031 215.20431106 169.71481309 210.79801292 169.7109375 206.37109375 C169.73123573 203.86132374 169.75208669 201.35155815 169.7734375 198.84179688 C169.79590714 194.96114333 169.81247244 191.08066655 169.81835938 187.19995117 C169.86776132 167.80104125 170.44397578 149.01922485 178.375 131 C178.90202515 129.75186523 178.90202515 129.75186523 179.43969727 128.47851562 C180.41813808 126.1841474 181.42289464 123.90354458 182.4375 121.625 C182.870625 120.61695313 183.30375 119.60890625 183.75 118.5703125 C188.40040199 108.46214707 195.88017173 99.96813481 203.39453125 91.87890625 C205.5167839 89.53753 207.48692778 87.11033584 209.4375 84.625 C208.53 84.58375 207.6225 84.5425 206.6875 84.5 C195.82497606 82.89480921 186.00089089 75.58276033 179.46875 67.0546875 C174.84439355 60.17693701 170.52593093 52.57713221 170.375 44.125 C171.77236735 40.83707682 173.20644317 40.05267627 176.4375 38.625 C187.4992068 35.38594449 201.16796558 36.77638081 211.4375 41.625 C212.22898437 41.98722656 213.02046875 42.34945312 213.8359375 42.72265625 C217.60308248 44.72862695 219.18910761 46.14595753 221.1875 50 C221.63779754 51.53218124 222.04796714 53.0762549 222.4375 54.625 C222.77523438 55.82640625 223.11296875 57.0278125 223.4609375 58.265625 C225.06084599 64.01538463 226.54662727 69.71615024 227.4375 75.625 C225.7875 75.955 224.1375 76.285 222.4375 76.625 C222.7675 79.595 223.0975 82.565 223.4375 85.625 C224.0975 85.625 224.7575 85.625 225.4375 85.625 C225.56125 86.594375 225.685 87.56375 225.8125 88.5625 C226.121875 90.0784375 226.121875 90.0784375 226.4375 91.625 C227.0975 91.955 227.7575 92.285 228.4375 92.625 C227.61507813 93.27984375 226.79265625 93.9346875 225.9453125 94.609375 C218.01424504 101.04889625 209.09325502 108.31348995 204.4375 117.625 C203.7775 117.625 203.1175 117.625 202.4375 117.625 C202.17710937 118.31464844 201.91671875 119.00429688 201.6484375 119.71484375 C200.29088994 122.97733707 198.69529099 126.05382471 197.0625 129.1875 C186.54326345 149.97033499 186.01623673 170.27500762 186.25 193.125 C186.26507763 195.70181507 186.27876057 198.27863871 186.29101562 200.85546875 C186.32376851 207.11216866 186.37372255 213.36854338 186.4375 219.625 C187.66887695 219.30192871 188.90025391 218.97885742 190.16894531 218.64599609 C203.89512972 215.22256596 217.33980856 217.55846673 229.625 224.3125 C236.76305542 228.86846142 245.75142981 236.25804572 248.4375 244.625 C248.453125 248.12890625 248.453125 248.12890625 247.4375 251.625 C237.19040069 259.5484613 224.48993315 261.35478053 211.92578125 260.16015625 C199.77278171 258.29569831 189.53198789 252.76217338 180.4375 244.625 C180.26927734 245.71748047 180.26927734 245.71748047 180.09765625 246.83203125 C176.80859117 260.74730658 163.60148899 272.46581251 152.0625 279.7578125 C134.24279489 290.26089701 114.82796017 292.12256963 94.90234375 287.28125 C93.68224609 286.95640625 93.68224609 286.95640625 92.4375 286.625 C92.25960937 287.73681641 92.25960937 287.73681641 92.078125 288.87109375 C90.64409048 295.03569336 86.74803774 300.2455669 81.4375 303.625 C65.51458803 311.60074944 45.17489341 310.77272499 28.41259766 305.31396484 C13.4474335 300.09373082 -3.4377491 292.08589729 -11 277.3125 C-15.63893816 267.05691026 -13.66143427 257.14680574 -10.34375 246.7734375 C-10.00758667 245.67569 -9.67142334 244.5779425 -9.32507324 243.44692993 C-8.25319375 239.95955475 -7.15844782 236.4798768 -6.0625 233 C-5.35783139 230.72183105 -4.65469568 228.44318737 -3.953125 226.1640625 C-1.08166385 216.86024241 1.81148068 207.56440864 4.7890625 198.29394531 C5.16518677 197.10838043 5.54131104 195.92281555 5.92883301 194.70132446 C6.64732497 192.43667457 7.37499722 190.17491048 8.11315918 187.91659546 C8.43353149 186.900784 8.75390381 185.88497253 9.08398438 184.83837891 C9.3702771 183.9495401 9.65656982 183.06070129 9.95153809 182.14492798 C10.50644084 179.26751116 10.30706766 177.41315926 9.4375 174.625 C7.27278806 172.4147174 7.27278806 172.4147174 4.5 170.4375 C-20.97261831 150.46802174 -36.02484481 121.4540372 -41.1796875 89.83984375 C-44.53038212 59.56311775 -39.04649592 26.58382033 -20.5625 1.625 C-13.87856298 -3.52921123 -7.47770664 -3.48629502 0 0 Z " fill="#8AC137" transform="translate(67.5625,203.375)"/>
<path d="M0 0 C4.36557644 2.6430421 6.89059976 6.22900795 9.5625 10.5 C10.45195312 11.86318359 10.45195312 11.86318359 11.359375 13.25390625 C21.61986096 29.97849837 28.65340878 49.30660493 32.5625 68.5 C32.72331055 69.27069824 32.88412109 70.04139648 33.04980469 70.83544922 C42.01277734 115.86283659 32.85283288 165.98380189 7.38671875 204.26757812 C4.55756811 208.43047121 1.59682673 212.48488079 -1.4375 216.5 C-2.12199219 217.41136719 -2.80648437 218.32273438 -3.51171875 219.26171875 C-16.195726 235.42476799 -32.88440607 252.13346436 -51.4375 261.5 C-52.4275 261.5 -53.4175 261.5 -54.4375 261.5 C-57.68976001 250.90267285 -60.94181161 240.30528176 -64.19364834 229.70782471 C-65.75195496 224.62948694 -67.31035642 219.55117831 -68.86895752 214.47293091 C-81.13703971 174.50085468 -81.13703971 174.50085468 -86.39453125 157.2734375 C-86.74369095 156.12993332 -87.09285065 154.98642914 -87.45259094 153.80827332 C-88.98190163 148.79940959 -90.50950506 143.79004068 -92.03344727 138.77954102 C-94.70428307 130.01715653 -97.46375005 121.29710845 -100.38818359 112.6159668 C-101.58251777 109.06936673 -102.73439077 105.52113508 -103.8125 101.9375 C-104.15023438 100.84308594 -104.48796875 99.74867187 -104.8359375 98.62109375 C-106.05397946 92.30151241 -103.80050587 87.59841687 -100.9375 82.0625 C-100.58220215 81.36729248 -100.2269043 80.67208496 -99.86083984 79.95581055 C-90.84611478 62.5579027 -79.9408596 47.66254727 -66.4375 33.5 C-65.71046875 32.72011719 -64.9834375 31.94023438 -64.234375 31.13671875 C-53.97829745 20.44380827 -41.92433993 12.02704852 -29.19873047 4.54101562 C-27.67215595 3.63869878 -26.16427108 2.70490346 -24.66015625 1.765625 C-17.11946543 -2.58524361 -8.13887324 -3.4703035 0 0 Z " fill="#248642" transform="translate(450.4375,1.5)"/>
<path d="M0 0 C4.91305161 2.60869997 9.51239036 5.56274504 14.0625 8.75 C14.66650635 9.16942871 15.2705127 9.58885742 15.89282227 10.02099609 C21.84807531 14.33151358 21.84807531 14.33151358 22.4375 17.625 C21.36118999 20.05203334 20.24841669 22.12612886 18.875 24.375 C12.84227264 34.93912083 8.75014734 46.35359208 8.4375 58.625 C8.3446875 60.02492188 8.3446875 60.02492188 8.25 61.453125 C7.45137895 81.31882368 15.24705058 101.65190523 20.4375 120.625 C20.7675 117.985 21.0975 115.345 21.4375 112.625 C21.7675 112.625 22.0975 112.625 22.4375 112.625 C22.416875 113.4809375 22.39625 114.336875 22.375 115.21875 C22.54575753 125.89109541 24.68963873 135.82927333 27.3125 146.125 C27.4892627 146.82181885 27.66602539 147.5186377 27.84814453 148.23657227 C29.61631841 155.15880219 31.4390051 162.04793994 33.81030273 168.79223633 C35.6072845 174.04328424 36.71706363 179.03372748 36.4375 184.625 C37.0975 184.955 37.7575 185.285 38.4375 185.625 C36.7875 185.955 35.1375 186.285 33.4375 186.625 C33.56125 187.800625 33.685 188.97625 33.8125 190.1875 C33.91691406 191.17943359 33.91691406 191.17943359 34.0234375 192.19140625 C34.57319902 195.4225518 35.51016297 198.48110129 36.4375 201.625 C36.83697964 203.06706099 37.23397088 204.50981286 37.62890625 205.953125 C40.49032068 216.28724549 43.58404217 226.5445858 46.875 236.75 C47.22183838 237.8627832 47.56867676 238.97556641 47.92602539 240.12207031 C54.05330633 258.79329189 66.77748912 272.78734036 84.19848633 281.66918945 C86.92878917 283.02378781 89.67608212 284.33499457 92.4375 285.625 C91.54737654 292.417029 89.01775925 297.04474075 84.1875 301.875 C70.21347016 310.76756445 52.3242994 310.71299866 36.41918945 307.54858398 C19.3563518 303.49124375 -0.34831294 294.92529707 -9.90625 279.44921875 C-15.53659751 268.44993273 -14.00616857 258.22468283 -10.34375 246.7734375 C-10.00758667 245.67569 -9.67142334 244.5779425 -9.32507324 243.44692993 C-8.25319375 239.95955475 -7.15844782 236.4798768 -6.0625 233 C-5.35783139 230.72183105 -4.65469568 228.44318737 -3.953125 226.1640625 C-1.08166385 216.86024241 1.81148068 207.56440864 4.7890625 198.29394531 C5.16518677 197.10838043 5.54131104 195.92281555 5.92883301 194.70132446 C6.64732497 192.43667457 7.37499722 190.17491048 8.11315918 187.91659546 C8.43353149 186.900784 8.75390381 185.88497253 9.08398438 184.83837891 C9.3702771 183.9495401 9.65656982 183.06070129 9.95153809 182.14492798 C10.50644084 179.26751116 10.30706766 177.41315926 9.4375 174.625 C7.27278806 172.4147174 7.27278806 172.4147174 4.5 170.4375 C-20.97261831 150.46802174 -36.02484481 121.4540372 -41.1796875 89.83984375 C-44.53038212 59.56311775 -39.04649592 26.58382033 -20.5625 1.625 C-13.87856298 -3.52921123 -7.47770664 -3.48629502 0 0 Z " fill="#82B932" transform="translate(67.5625,203.375)"/>
<path d="M0 0 C0.99 0 1.98 0 3 0 C6.44419134 10.37357631 6.44419134 10.37357631 6 16 C6.66 16.33 7.32 16.66 8 17 C6.35 17.33 4.7 17.66 3 18 C3.12375 19.175625 3.2475 20.35125 3.375 21.5625 C3.47941406 22.55443359 3.47941406 22.55443359 3.5859375 23.56640625 C4.13569902 26.7975518 5.07266297 29.85610129 6 33 C6.39947964 34.44206099 6.79647088 35.88481286 7.19140625 37.328125 C10.05282068 47.66224549 13.14654217 57.9195858 16.4375 68.125 C16.78433838 69.2377832 17.13117676 70.35056641 17.48852539 71.49707031 C23.61580633 90.16829189 36.33998912 104.16234036 53.76098633 113.04418945 C56.49128917 114.39878781 59.23858212 115.70999457 62 117 C61.10987654 123.792029 58.58025925 128.41974075 53.75 133.25 C39.77597016 142.14256445 21.8867994 142.08799866 5.98168945 138.92358398 C-11.0811482 134.86624375 -30.78581294 126.30029707 -40.34375 110.82421875 C-45.94609349 99.87964058 -44.47184669 89.68665492 -40.81640625 78.2890625 C-40.48515244 77.20927628 -40.15389862 76.12949005 -39.81260681 75.01698303 C-38.74469678 71.54798356 -37.6538679 68.08668255 -36.5625 64.625 C-35.82514025 62.24376584 -35.08946899 59.86200818 -34.35546875 57.47973633 C-32.90995449 52.79387195 -31.45671938 48.11052681 -29.99658203 43.42919922 C-27.63145046 35.83364169 -25.33729722 28.21772843 -23.06759644 20.59320068 C-22.18426073 17.62740781 -21.2948936 14.66342472 -20.40625 11.69921875 C-19.93741958 10.13283657 -19.46863285 8.5664413 -19 7 C-18.27192139 7.40557129 -17.54384277 7.81114258 -16.79370117 8.22900391 C-15.82408447 8.76444824 -14.85446777 9.29989258 -13.85546875 9.8515625 C-12.90051514 10.38088379 -11.94556152 10.91020508 -10.96166992 11.45556641 C-6.75180795 13.65089959 -2.44083147 15.32664322 2 17 C2 13.7 2 10.4 2 7 C1.34 6.67 0.68 6.34 0 6 C0 4.02 0 2.04 0 0 Z " fill="#2D2D2D" transform="translate(98,372)"/>
<path d="M0 0 C20.83970429 13.6096028 35.05857775 42.09906283 40.453125 66.00830078 C47.17046978 98.37171515 42.22830866 134.00511382 24 162 C21.76451852 164.52586361 19.83000233 166.09519074 17 168 C16.01 168 15.02 168 14 168 C13.76490723 167.04512695 13.52981445 166.09025391 13.28759766 165.10644531 C11.49460058 157.85996503 9.65465538 150.62949363 7.7109375 143.421875 C7.51937073 142.70938599 7.32780396 141.99689697 7.13043213 141.26281738 C6.34907722 138.35854055 5.56694176 135.45451707 4.77636719 132.55273438 C2.57892167 124.47505412 0.56797382 116.552146 -0.52099609 108.23144531 C-0.82996921 105.80806402 -0.82996921 105.80806402 -3 104 C-3.8501354 101.29615926 -4.6076762 98.62082605 -5.3125 95.87890625 C-5.63408081 94.65710915 -5.63408081 94.65710915 -5.9621582 93.41062927 C-6.41588823 91.68061838 -6.86623449 89.94971707 -7.31347656 88.21801758 C-7.98976605 85.60208561 -8.67753027 82.98938855 -9.3671875 80.37695312 C-16.66104507 52.55241618 -16.77638423 29.26222288 -2.453125 3.44921875 C-1 1 -1 1 0 0 Z " fill="#99CD4B" transform="translate(90,220)"/>
<path d="M0 0 C2.76628915 -0.2667616 5.30619631 -0.34804189 8.0703125 -0.29296875 C9.26465408 -0.28660149 9.26465408 -0.28660149 10.48312378 -0.28010559 C13.03075729 -0.26328834 15.57760489 -0.22563179 18.125 -0.1875 C19.85024901 -0.17245705 21.57551039 -0.15876796 23.30078125 -0.14648438 C27.53415782 -0.11337501 31.76694559 -0.06157285 36 0 C37.98882767 5.14335412 39.71505802 10.23792509 41.17651367 15.56176758 C41.37202316 16.27012756 41.56753265 16.97848755 41.76896667 17.70831299 C42.4057225 20.01937258 43.0370478 22.33187254 43.66796875 24.64453125 C44.11186841 26.2626482 44.55598924 27.8807045 45.00032043 29.498703 C45.92640763 32.87436603 46.84978843 36.25075437 47.77124023 39.62768555 C48.95305891 43.9579215 50.14172936 48.28624198 51.33240795 52.61404896 C52.24878422 55.94780196 53.16153122 59.28254014 54.07317543 62.61758995 C54.51023064 64.21471704 54.94842551 65.81153271 55.38777733 67.40802956 C55.99944099 69.63276379 56.6062033 71.85877757 57.21166992 74.08520508 C57.55791916 75.35125076 57.9041684 76.61729645 58.26091003 77.92170715 C59 81 59 81 59 84 C33.92 84 8.84 84 -17 84 C-17 37.68092775 -17 37.68092775 -11.1875 22.1875 C-10.93323242 21.48737793 -10.67896484 20.78725586 -10.41699219 20.06591797 C-7.73816698 12.91526246 -4.23325196 6.34987793 0 0 Z " fill="#2B2B2B" transform="translate(270,321)"/>
<path d="M0 0 C0.02886751 4.14581887 0.04675327 8.29161216 0.0625 12.4375 C0.07087891 13.62150391 0.07925781 14.80550781 0.08789062 16.02539062 C0.09111328 17.15009766 0.09433594 18.27480469 0.09765625 19.43359375 C0.10289307 20.47572021 0.10812988 21.51784668 0.11352539 22.59155273 C0 25 0 25 -1 26 C-2.7205568 26.21374691 -4.44214805 26.42130835 -6.16723633 26.59472656 C-26.04422719 28.61251145 -43.11508478 37.14615376 -56.125 52.54296875 C-63.30585762 61.95288425 -66.91821042 71.75219145 -70 83 C-70.48146484 84.71509766 -70.48146484 84.71509766 -70.97265625 86.46484375 C-71.66648546 88.97231024 -72.34394054 91.48243848 -73 94 C-82.59086247 92.91557062 -90.06093328 86.32226079 -97 80 C-91.79116505 59.76567963 -83.38903652 43.28197318 -69 28 C-68.45859375 27.38253906 -67.9171875 26.76507813 -67.359375 26.12890625 C-59.65182882 17.70121056 -48.37466025 11.56010393 -38 7 C-37.21109375 6.64292969 -36.4221875 6.28585937 -35.609375 5.91796875 C-24.54354075 1.38640779 -11.90709678 -0.27216221 0 0 Z " fill="#525252" transform="translate(238,380)"/>
<path d="M0 0 C1.63135951 1.63135951 1.59076718 3.7090994 2 5.9375 C2.6503519 9.58532599 2.6503519 9.58532599 4 13 C5.95070702 13.61660818 5.95070702 13.61660818 8.25 14 C10.99902582 14.54544163 13.26947633 15.11130544 15.875 16.1875 C18.13257403 17.30813281 18.13257403 17.30813281 21 16 C28.44447461 15.33784851 35.21431415 14.83825566 41.38671875 19.50390625 C45.97728062 23.76101326 49.79188801 27.94533928 50.23046875 34.3828125 C50.21628906 35.61773437 50.20210938 36.85265625 50.1875 38.125 C50.18105469 39.36507812 50.17460937 40.60515625 50.16796875 41.8828125 C50 45 50 45 49 47 C48.01 47 47.02 47 46 47 C45.9071875 48.2375 45.9071875 48.2375 45.8125 49.5 C44.24871708 56.23629566 40.63400085 61.31182471 34.84765625 65.1015625 C31.89893117 66.53540345 29.25876258 66.80048392 26 67 C25.505 68.98 25.505 68.98 25 71 C18.07521966 73.30826011 11.83995433 72.1733095 5.33203125 69.32421875 C-0.31268181 66.11892943 -3.54850854 61.12831406 -5.53515625 55.0390625 C-6.63794505 50.2016192 -6.34555019 46.07302426 -4.8125 41.3125 C-3.62365925 38.04625301 -3.62365925 38.04625301 -5.3125 35.5 C-6.1478125 34.2625 -6.1478125 34.2625 -7 33 C-7.165 31.783125 -7.33 30.56625 -7.5 29.3125 C-7.665 28.219375 -7.83 27.12625 -8 26 C-11.00866697 23.99422202 -12.64476075 23.54121497 -16.125 22.9375 C-20.89982425 22.10017575 -20.89982425 22.10017575 -22 21 C-22.125 18 -22.125 18 -22 15 C-21 14 -21 14 -17.83984375 13.90234375 C-15.90818359 13.91974609 -15.90818359 13.91974609 -13.9375 13.9375 C-12.64714844 13.94652344 -11.35679688 13.95554687 -10.02734375 13.96484375 C-9.02832031 13.97644531 -8.02929688 13.98804687 -7 14 C-7.23976563 13.13568359 -7.23976563 13.13568359 -7.484375 12.25390625 C-8.42408586 8.14623074 -8.97847346 3.6994539 -6.8125 -0.0625 C-4.23719907 -1.3945522 -2.70282604 -0.85352401 0 0 Z " fill="#EB5750" transform="translate(94,62)"/>
<path d="M0 0 C0.79148437 0.36222656 1.58296875 0.72445312 2.3984375 1.09765625 C6.16558248 3.10362695 7.75160761 4.52095753 9.75 8.375 C10.20029754 9.90718124 10.61046714 11.4512549 11 13 C11.33773437 14.20140625 11.67546875 15.4028125 12.0234375 16.640625 C13.62334599 22.39038463 15.10912727 28.09115024 16 34 C13.525 34.495 13.525 34.495 11 35 C11.495 39.455 11.495 39.455 12 44 C12.66 44 13.32 44 14 44 C14.12375 44.969375 14.2475 45.93875 14.375 46.9375 C14.58125 47.948125 14.7875 48.95875 15 50 C15.99 50.495 15.99 50.495 17 51 C12.375 55 12.375 55 9 55 C8.67 49.72 8.34 44.44 8 39 C6.9275 39.886875 5.855 40.77375 4.75 41.6875 C0.86371075 44.10441487 -1.4358051 44.19692933 -5.875 43.1875 C-19.87176064 38.79808766 -30.16604497 29.85680933 -37 17 C-39.23003068 12.174675 -40.96697163 7.84958856 -41.0625 2.5 C-39.66513265 -0.78792318 -38.23105683 -1.57232373 -35 -3 C-23.9382932 -6.23905551 -10.26953442 -4.84861919 0 0 Z " fill="#8BC033" transform="translate(279,245)"/>
<path d="M0 0 C2.15950095 0.01007215 4.31900657 0.01919035 6.47851562 0.02734375 C11.67329647 0.04897075 16.8678435 0.08325522 22.0625 0.125 C20.10134272 6.27032316 17.87145389 12.24083218 15.375 18.1875 C15.05466797 18.95771484 14.73433594 19.72792969 14.40429688 20.52148438 C13.62650964 22.39049549 12.8449152 24.25792153 12.0625 26.125 C6.20925648 26.19942019 0.3562913 26.25372982 -5.49731445 26.28979492 C-7.4866211 26.30483724 -9.47589483 26.32527623 -11.46508789 26.35131836 C-14.33227689 26.38790246 -17.19902559 26.40477218 -20.06640625 26.41796875 C-20.94897598 26.43345261 -21.83154572 26.44893646 -22.74085999 26.46488953 C-30.68892832 26.46703267 -36.66853473 24.19352511 -42.9375 19.125 C-47.13082596 14.07929236 -49.65686172 9.71999959 -49.9375 3.125 C-36.84084475 -3.42332762 -14.34699612 -0.11893185 0 0 Z " fill="#504F4F" transform="translate(229.9375,320.875)"/>
<path d="M0 0 C0.33 0 0.66 0 1 0 C5.9201114 25.83058486 -2.77794776 56.1578894 -17 78 C-19.23548148 80.52586361 -21.16999767 82.09519074 -24 84 C-24.99 84 -25.98 84 -27 84 C-31.91961956 60.60180943 -25.91300074 37.14521809 -13.5625 17.125 C-9.530062 11.09458932 -5.13798571 5.13798571 0 0 Z " fill="#AADC57" transform="translate(131,304)"/>
<path d="M0 0 C7.93279842 1.31060099 15.65191082 3.1010522 23.4140625 5.1875 C24.55032074 5.49067139 25.68657898 5.79384277 26.85726929 6.10620117 C29.2360329 6.74264049 31.61417045 7.38142407 33.99169922 8.02246094 C37.64702583 9.00592605 41.30577229 9.975886 44.96484375 10.9453125 C47.28146906 11.56689246 49.59788332 12.18925967 51.9140625 12.8125 C53.01183014 13.10213623 54.10959778 13.39177246 55.2406311 13.69018555 C56.24613007 13.96386963 57.25162903 14.23755371 58.28759766 14.51953125 C59.17597321 14.75776611 60.06434875 14.99600098 60.97964478 15.24145508 C63 16 63 16 64 18 C57.37537631 25.22406759 47.60184443 28.28686567 38 29 C24.48760925 29.12482578 13.09446065 25.67922595 2 18 C0.39125 16.9171875 0.39125 16.9171875 -1.25 15.8125 C-3.76524613 11.77014014 -2.74621106 8.92617631 -1.7109375 4.42578125 C-1 2 -1 2 0 0 Z " fill="#1D8744" transform="translate(252,435)"/>
<path d="M0 0 C6.35583645 4.69915121 13.54974002 11.15801273 16.3828125 18.76171875 C16.0528125 20.08171875 15.7228125 21.40171875 15.3828125 22.76171875 C-5.4071875 17.15171875 -26.1971875 11.54171875 -47.6171875 5.76171875 C-47.6171875 -3.32161458 -47.6171875 -3.32161458 -45.6171875 -6.23828125 C-29.95225724 -11.15513711 -13.79030549 -8.80185093 0 0 Z " fill="#5DA72F" transform="translate(299.6171875,429.23828125)"/>
<path d="M0 0 C0.84594727 0.3853894 0.84594727 0.3853894 1.70898438 0.77856445 C4.30476296 1.95926104 6.9023616 3.13590115 9.5 4.3125 C10.386875 4.71662109 11.27375 5.12074219 12.1875 5.53710938 C17.39907799 7.8938156 22.61983189 10.05785988 28 12 C28.2475 11.236875 28.495 10.47375 28.75 9.6875 C30.19058109 6.59025066 30.95022608 5.52488696 34 4 C36.72028325 3.76028155 39.25876407 3.8629382 42 4 C42.02694851 5.95825873 42.04637218 7.91662226 42.0625 9.875 C42.07410156 10.96554688 42.08570313 12.05609375 42.09765625 13.1796875 C42 16 42 16 41 18 C40.01 18 39.02 18 38 18 C37.9071875 19.2375 37.9071875 19.2375 37.8125 20.5 C36.24871708 27.23629566 32.63400085 32.31182471 26.84765625 36.1015625 C23.89893117 37.53540345 21.25876258 37.80048392 18 38 C17.67 39.32 17.34 40.64 17 42 C12.99047425 43.33650858 9.17983803 43.20225023 5 43 C3 41 3 41 2.5625 38.25 C3.17575056 33.69442439 4.72277683 32.20274083 8 29 C10.171875 28.33203125 10.171875 28.33203125 12 28 C10.56771766 24.76849438 9.12825427 21.54023631 7.6875 18.3125 C7.28337891 17.40048828 6.87925781 16.48847656 6.46289062 15.54882812 C4.84393784 11.92921823 3.26504638 8.43712442 1.20703125 5.04296875 C0 3 0 3 0 0 Z " fill="#403C3C" transform="translate(102,91)"/>
<path d="M0 0 C0.79148437 0.36222656 1.58296875 0.72445312 2.3984375 1.09765625 C6.23655474 3.14141904 7.77363482 4.56288104 9.8125 8.5 C10.24916377 9.98862648 10.63904931 11.49122612 11 13 C11.27585937 14.06605469 11.55171875 15.13210938 11.8359375 16.23046875 C14.20131102 25.83301721 14.20131102 25.83301721 14 31 C8.14561265 29.42161125 3.38499242 26.42902056 -1.75 23.3125 C-3.69450892 22.14709566 -5.63986025 20.98309604 -7.5859375 19.8203125 C-8.61557617 19.20446289 -9.64521484 18.58861328 -10.70605469 17.95410156 C-16.56476298 14.47847888 -22.47025741 11.08412646 -28.375 7.6875 C-29.54005321 7.01670752 -30.70509261 6.34589104 -31.87011719 5.67504883 C-34.57950129 4.11569255 -37.28943053 2.55729459 -40 1 C-37.82161436 -2.26757846 -36.75443514 -2.71520797 -33.06005859 -3.63378906 C-22.01970159 -5.59640289 -10.15293487 -4.79356832 0 0 Z " fill="#A9DB56" transform="translate(279,245)"/>
<path d="M0 0 C12 25.36893204 12 25.36893204 12 28 C10.00669158 29.34331654 8.00615134 30.67594012 6 32 C3.5705484 35.6441774 3.83820425 37.71241272 4 42 C-1.58116738 41.34339207 -5.3181357 38.72991756 -9.1875 34.75 C-13.17172631 28.70496698 -14.68682234 23.21163455 -14 16 C-12.24212286 10.43338906 -6.96031671 0 0 0 Z " fill="#EC5C57" transform="translate(102,91)"/>
<path d="M0 0 C1.63135951 1.63135951 1.59076718 3.7090994 2 5.9375 C2.6503519 9.58532599 2.6503519 9.58532599 4 13 C5.98900585 13.5394814 5.98900585 13.5394814 8.3125 13.875 C12.33059722 14.66838225 14.43454336 15.65375222 17 19 C16.51789063 19.38671875 16.03578125 19.7734375 15.5390625 20.171875 C14.90742187 20.69265625 14.27578125 21.2134375 13.625 21.75 C12.99851563 22.26046875 12.37203125 22.7709375 11.7265625 23.296875 C9.91117983 24.89811154 9.91117983 24.89811154 9.0234375 27.01171875 C7.7468787 29.49175092 6.28339221 30.48847044 4 32.0625 C1.22079739 33.98852828 -0.07469566 35.11204349 -2 38 C-2.66 38 -3.32 38 -4 38 C-6.2492354 35.03100927 -6.99499828 33.03688765 -7.5 29.3125 C-7.665 28.219375 -7.83 27.12625 -8 26 C-11.00866697 23.99422202 -12.64476075 23.54121497 -16.125 22.9375 C-20.89982425 22.10017575 -20.89982425 22.10017575 -22 21 C-22.125 18 -22.125 18 -22 15 C-21 14 -21 14 -17.83984375 13.90234375 C-15.90818359 13.91974609 -15.90818359 13.91974609 -13.9375 13.9375 C-12.64714844 13.94652344 -11.35679688 13.95554687 -10.02734375 13.96484375 C-9.02832031 13.97644531 -8.02929688 13.98804687 -7 14 C-7.23976563 13.13568359 -7.23976563 13.13568359 -7.484375 12.25390625 C-8.42408586 8.14623074 -8.97847346 3.6994539 -6.8125 -0.0625 C-4.23719907 -1.3945522 -2.70282604 -0.85352401 0 0 Z " fill="#504F4F" transform="translate(94,62)"/>
<path d="M0 0 C0.02694851 1.95825873 0.04637218 3.91662226 0.0625 5.875 C0.07410156 6.96554688 0.08570313 8.05609375 0.09765625 9.1796875 C0 12 0 12 -1 14 C-6.54050113 13.43174347 -11.03715966 11.37113483 -16 9 C-15.34 8.67 -14.68 8.34 -14 8 C-13.71125 7.21625 -13.4225 6.4325 -13.125 5.625 C-10.40305607 -0.72620251 -6.1748511 -0.30874256 0 0 Z " fill="#554B4B" transform="translate(144,95)"/>
<path d="M0 0 C0.721875 0.12375 1.44375 0.2475 2.1875 0.375 C6.77975513 8.636959 6.77975513 8.636959 6.1875 13.375 C2.17797425 14.71150858 -1.63266197 14.57725023 -5.8125 14.375 C-7.8125 12.375 -7.8125 12.375 -8.25 9.625 C-7.58865076 4.71211994 -5.31776807 0.70903574 0 0 Z " fill="#574E4D" transform="translate(112.8125,119.625)"/>
<path d="M0 0 C1.34771484 -0.00386719 1.34771484 -0.00386719 2.72265625 -0.0078125 C4.9375 0.125 4.9375 0.125 5.9375 1.125 C6.3738715 4.35414907 6.18476917 5.74915086 4.375 8.5 C1.9375 10.125 1.9375 10.125 -1.6875 10.0625 C-5.0625 9.125 -5.0625 9.125 -7.0625 6.125 C-7.1875 3.4375 -7.1875 3.4375 -7.0625 1.125 C-4.56110398 -0.12569801 -2.78857309 -0.00802467 0 0 Z " fill="#594F4E" transform="translate(120.0625,77.875)"/>
<path d="M0 0 C6.42527261 -0.48492623 6.42527261 -0.48492623 9 1.6875 C10.27800253 4.64288086 10.08051862 5.98998383 9 9 C7.75 10.8125 7.75 10.8125 6 12 C3.375 12.25 3.375 12.25 1 12 C0 11 0 11 -0.09765625 8.49609375 C-0.08605469 7.48675781 -0.07445313 6.47742188 -0.0625 5.4375 C-0.05347656 4.42558594 -0.04445313 3.41367188 -0.03515625 2.37109375 C-0.02355469 1.58863281 -0.01195313 0.80617188 0 0 Z " fill="#575151" transform="translate(89,103)"/>
<path d="M0 0 C0.50471197 1.76949612 1.00360685 3.54065223 1.5 5.3125 C1.7784375 6.29863281 2.056875 7.28476562 2.34375 8.30078125 C3 11 3 11 3 14 C1.35 14.33 -0.3 14.66 -2 15 C-2.33 13.02 -2.66 11.04 -3 9 C-3.66 9 -4.32 9 -5 9 C-5.33 6.03 -5.66 3.06 -6 0 C-3.50907189 -1.24546405 -2.58919267 -0.7767578 0 0 Z " fill="#237840" transform="translate(296,280)"/>
<path d="M0 0 C1.76462683 3.08809695 2 4.23312136 2 8 C2.66 8 3.32 8 4 8 C4.12375 8.969375 4.2475 9.93875 4.375 10.9375 C4.684375 12.4534375 4.684375 12.4534375 5 14 C5.66 14.33 6.32 14.66 7 15 C2.375 19 2.375 19 -1 19 C-1.66 13.39 -2.32 7.78 -3 2 C-2.01 1.34 -1.02 0.68 0 0 Z " fill="#65A73C" transform="translate(289,281)"/>
<path d="M0 0 C5.07634826 1.7989503 9.63713611 4.49026455 14.3125 7.125 C15.14845703 7.59292969 15.98441406 8.06085938 16.84570312 8.54296875 C18.89866233 9.6926259 20.95002202 10.84503802 23 12 C23.33 11.01 23.66 10.02 24 9 C24.33 10.98 24.66 12.96 25 15 C22.55492066 15.87324262 21.32299678 16.10151327 18.8125 15.3125 C17 14 17 14 16.25 11.875 C16.1675 11.25625 16.085 10.6375 16 10 C14.35 9.67 12.7 9.34 11 9 C11 8.34 11 7.68 11 7 C8.03 6.01 5.06 5.02 2 4 C2 3.34 2 2.68 2 2 C1.34 2 0.68 2 0 2 C0 1.34 0 0.68 0 0 Z " fill="#64A23B" transform="translate(270,264)"/>
<path d="M0 0 C0.99 0 1.98 0 3 0 C6.44419134 10.37357631 6.44419134 10.37357631 6 16 C6.66 16.33 7.32 16.66 8 17 C7.21625 17.103125 6.4325 17.20625 5.625 17.3125 C2.66954819 17.77595022 2.66954819 17.77595022 1 21 C0.67 19.68 0.34 18.36 0 17 C0.66 17 1.32 17 2 17 C2 13.7 2 10.4 2 7 C1.34 6.67 0.68 6.34 0 6 C0 4.02 0 2.04 0 0 Z " fill="#3C8B3A" transform="translate(98,372)"/>
<path d="M0 0 C0.66 0 1.32 0 2 0 C2.99 3.63 3.98 7.26 5 11 C5.99 11 6.98 11 8 11 C8.33 11.99 8.66 12.98 9 14 C7.35 14.33 5.7 14.66 4 15 C3.67 13.02 3.34 11.04 3 9 C2.34 9 1.68 9 1 9 C0.67 6.03 0.34 3.06 0 0 Z " fill="#3A883E" transform="translate(290,280)"/>
<path d="M0 0 C0.33 0 0.66 0 1 0 C1.33 6.93 1.66 13.86 2 21 C-0.22825644 18.77174356 -0.69239369 17.34238372 -1.625 14.375 C-1.88539062 13.55773437 -2.14578125 12.74046875 -2.4140625 11.8984375 C-2.60742188 11.27195312 -2.80078125 10.64546875 -3 10 C-2.34 9.34 -1.68 8.68 -1 8 C-0.54188325 6.02764667 -0.54188325 6.02764667 -0.375 3.875 C-0.25125 2.59625 -0.1275 1.3175 0 0 Z " fill="#5A9D34" transform="translate(89,316)"/>
<path d="M0 0 C1.76462683 3.08809695 2 4.23312136 2 8 C2.66 8 3.32 8 4 8 C4.12375 8.969375 4.2475 9.93875 4.375 10.9375 C4.684375 12.4534375 4.684375 12.4534375 5 14 C5.66 14.33 6.32 14.66 7 15 C5.68 15.33 4.36 15.66 3 16 C2.30538115 13.52262548 1.61903647 11.04347268 0.9375 8.5625 C0.63875977 7.50192383 0.63875977 7.50192383 0.33398438 6.41992188 C-0.15556068 4.62492332 -0.58286079 2.81319305 -1 1 C-0.67 0.67 -0.34 0.34 0 0 Z " fill="#52993E" transform="translate(289,281)"/>
<path d="M0 0 C3.7910119 1.44950455 7.3874638 3.15172566 11 5 C10.34 5.66 9.68 6.32 9 7 C6.69 6.01 4.38 5.02 2 4 C2 3.34 2 2.68 2 2 C1.34 2 0.68 2 0 2 C0 1.34 0 0.68 0 0 Z " fill="#75B139" transform="translate(270,264)"/>
<path d="M0 0 C0.33 0 0.66 0 1 0 C1.33 4.62 1.66 9.24 2 14 C-0.6855594 11.3144406 -1.06049974 8.62378672 -2 5 C-1.67 5 -1.34 5 -1 5 C-0.67 3.35 -0.34 1.7 0 0 Z " fill="#62A234" transform="translate(74,268)"/>
<path d="M0 0 C-1.45255699 3.82946843 -3.42895561 5.12050295 -7 7 C-3.86206897 0 -3.86206897 0 0 0 Z " fill="#262526" transform="translate(136,119)"/>
</svg>
